<svg width="783" height="783" viewBox="0 0 783 783" fill="none" xmlns="http://www.w3.org/2000/svg">
    <circle cx="391.5" cy="391.501" r="286.307" fill="#C4C4C4" fill-opacity="0.1" />
    <circle cx="391.5" cy="391.5" r="333.503" stroke="white" stroke-opacity="0.1" stroke-width="4.39888" />
    <circle cx="391.5" cy="391.5" r="389.301" stroke="white" stroke-opacity="0.05" stroke-width="4.39888" />
    <path fill-rule="evenodd" clip-rule="evenodd"
        d="M98.6636 451.809C103.703 448.035 104.917 440.949 101.396 435.712C105.16 440.883 112.359 442.142 117.65 438.521C112.46 442.257 111.182 449.428 114.704 454.726C110.985 449.648 103.922 448.377 98.6636 451.809Z"
        fill="#2D81F7" />
    <circle cx="644.962" cy="391.962" r="7.96214" fill="#BD2058" />
    <path
        d="M658.826 225.838C669.04 217.292 669.971 194.32 645.326 208.823C614.519 226.951 626.546 242.551 635.799 240.919C648.438 238.689 657.53 209.59 650.342 195.126C640.174 174.664 617.186 189.603 604.511 204.413"
        stroke="#FFC042" stroke-width="2.07188" />
</svg>