<svg fill="none" height="551" viewBox="0 0 1359 551" width="1359" xmlns="http://www.w3.org/2000/svg" xmlns:xlink="http://www.w3.org/1999/xlink"><filter id="a" color-interpolation-filters="sRGB" filterUnits="userSpaceOnUse" height="130.439" width="130.439" x="137.215" y="291.456"><feFlood flood-opacity="0" result="BackgroundImageFix"/><feColorMatrix in="SourceAlpha" result="hardAlpha" type="matrix" values="0 0 0 0 0 0 0 0 0 0 0 0 0 0 0 0 0 0 127 0"/><feOffset/><feGaussianBlur stdDeviation="15.0506"/><feComposite in2="hardAlpha" operator="out"/><feColorMatrix type="matrix" values="0 0 0 0 0.0235294 0 0 0 0 0.109804 0 0 0 0 0.239216 0 0 0 0.1 0"/><feBlend in2="BackgroundImageFix" mode="normal" result="effect1_dropShadow_543_3309"/><feBlend in="SourceGraphic" in2="effect1_dropShadow_543_3309" mode="normal" result="shape"/></filter><filter id="b" color-interpolation-filters="sRGB" filterUnits="userSpaceOnUse" height="120.405" width="120.405" x="143.931" y="-5.02216"><feFlood flood-opacity="0" result="BackgroundImageFix"/><feColorMatrix in="SourceAlpha" result="hardAlpha" type="matrix" values="0 0 0 0 0 0 0 0 0 0 0 0 0 0 0 0 0 0 127 0"/><feOffset/><feGaussianBlur stdDeviation="15.0506"/><feComposite in2="hardAlpha" operator="out"/><feColorMatrix type="matrix" values="0 0 0 0 0.0235294 0 0 0 0 0.109804 0 0 0 0 0.239216 0 0 0 0.1 0"/><feBlend in2="BackgroundImageFix" mode="normal" result="effect1_dropShadow_543_3309"/><feBlend in="SourceGraphic" in2="effect1_dropShadow_543_3309" mode="normal" result="shape"/></filter><filter id="c" color-interpolation-filters="sRGB" filterUnits="userSpaceOnUse" height="131.364" width="131.364" x=".467442" y="122.293"><feFlood flood-opacity="0" result="BackgroundImageFix"/><feColorMatrix in="SourceAlpha" result="hardAlpha" type="matrix" values="0 0 0 0 0 0 0 0 0 0 0 0 0 0 0 0 0 0 127 0"/><feOffset/><feGaussianBlur stdDeviation="18.7663"/><feComposite in2="hardAlpha" operator="out"/><feColorMatrix type="matrix" values="0 0 0 0 0.0235294 0 0 0 0 0.109804 0 0 0 0 0.239216 0 0 0 0.1 0"/><feBlend in2="BackgroundImageFix" mode="normal" result="effect1_dropShadow_543_3309"/><feBlend in="SourceGraphic" in2="effect1_dropShadow_543_3309" mode="normal" result="shape"/></filter><filter id="d" color-interpolation-filters="sRGB" filterUnits="userSpaceOnUse" height="105.354" width="105.354" x="64.1976" y="431.231"><feFlood flood-opacity="0" result="BackgroundImageFix"/><feColorMatrix in="SourceAlpha" result="hardAlpha" type="matrix" values="0 0 0 0 0 0 0 0 0 0 0 0 0 0 0 0 0 0 127 0"/><feOffset/><feGaussianBlur stdDeviation="15.0506"/><feComposite in2="hardAlpha" operator="out"/><feColorMatrix type="matrix" values="0 0 0 0 0.0235294 0 0 0 0 0.109804 0 0 0 0 0.239216 0 0 0 0.1 0"/><feBlend in2="BackgroundImageFix" mode="normal" result="effect1_dropShadow_543_3309"/><feBlend in="SourceGraphic" in2="effect1_dropShadow_543_3309" mode="normal" result="shape"/></filter><filter id="e" color-interpolation-filters="sRGB" filterUnits="userSpaceOnUse" height="122.086" width="123.688" x="1151.98" y="-25.9127"><feFlood flood-opacity="0" result="BackgroundImageFix"/><feColorMatrix in="SourceAlpha" result="hardAlpha" type="matrix" values="0 0 0 0 0 0 0 0 0 0 0 0 0 0 0 0 0 0 127 0"/><feOffset/><feGaussianBlur stdDeviation="16.4564"/><feComposite in2="hardAlpha" operator="out"/><feColorMatrix type="matrix" values="0 0 0 0 0.0235294 0 0 0 0 0.109804 0 0 0 0 0.239216 0 0 0 0.12 0"/><feBlend in2="BackgroundImageFix" mode="normal" result="effect1_dropShadow_543_3309"/><feBlend in="SourceGraphic" in2="effect1_dropShadow_543_3309" mode="normal" result="shape"/></filter><filter id="f" color-interpolation-filters="sRGB" filterUnits="userSpaceOnUse" height="115.195" width="115.195" x="1242.96" y="358.88"><feFlood flood-opacity="0" result="BackgroundImageFix"/><feColorMatrix in="SourceAlpha" result="hardAlpha" type="matrix" values="0 0 0 0 0 0 0 0 0 0 0 0 0 0 0 0 0 0 127 0"/><feOffset/><feGaussianBlur stdDeviation="16.4564"/><feComposite in2="hardAlpha" operator="out"/><feColorMatrix type="matrix" values="0 0 0 0 0.0235294 0 0 0 0 0.109804 0 0 0 0 0.239216 0 0 0 0.12 0"/><feBlend in2="BackgroundImageFix" mode="normal" result="effect1_dropShadow_543_3309"/><feBlend in="SourceGraphic" in2="effect1_dropShadow_543_3309" mode="normal" result="shape"/></filter><filter id="g" color-interpolation-filters="sRGB" filterUnits="userSpaceOnUse" height="140.144" width="140.144" x="1077.66" y="436.412"><feFlood flood-opacity="0" result="BackgroundImageFix"/><feColorMatrix in="SourceAlpha" result="hardAlpha" type="matrix" values="0 0 0 0 0 0 0 0 0 0 0 0 0 0 0 0 0 0 127 0"/><feOffset/><feGaussianBlur stdDeviation="16.4564"/><feComposite in2="hardAlpha" operator="out"/><feColorMatrix type="matrix" values="0 0 0 0 0.0235294 0 0 0 0 0.109804 0 0 0 0 0.239216 0 0 0 0.12 0"/><feBlend in2="BackgroundImageFix" mode="normal" result="effect1_dropShadow_543_3309"/><feBlend in="SourceGraphic" in2="effect1_dropShadow_543_3309" mode="normal" result="shape"/></filter><filter id="h" color-interpolation-filters="sRGB" filterUnits="userSpaceOnUse" height="141.709" width="141.709" x="1092.1" y="183.212"><feFlood flood-opacity="0" result="BackgroundImageFix"/><feColorMatrix in="SourceAlpha" result="hardAlpha" type="matrix" values="0 0 0 0 0 0 0 0 0 0 0 0 0 0 0 0 0 0 127 0"/><feOffset/><feGaussianBlur stdDeviation="16.4564"/><feComposite in2="hardAlpha" operator="out"/><feColorMatrix type="matrix" values="0 0 0 0 0.0235294 0 0 0 0 0.109804 0 0 0 0 0.239216 0 0 0 0.12 0"/><feBlend in2="BackgroundImageFix" mode="normal" result="effect1_dropShadow_543_3309"/><feBlend in="SourceGraphic" in2="effect1_dropShadow_543_3309" mode="normal" result="shape"/></filter><clipPath id="i"><path d="m187.435 341.675h30v30h-30z"/></clipPath><clipPath id="j"><path d="m189.083 40.1299h32v32h-32z"/></clipPath><clipPath id="k"><path d="m1198.6 20.7139h30.4348v28.833h-30.4348z"/></clipPath><clipPath id="l"><path d="m1132.51 491.267h30.4348v30.4348h-30.4348z"/></clipPath><clipPath id="m"><path d="m1146.95 238.066h32v32h-32z"/></clipPath><g filter="url(#a)"><rect fill="#fff" height="70.2363" rx="35.1181" shape-rendering="crispEdges" width="70.2363" x="167.316" y="321.557"/><g clip-path="url(#i)" fill="#5fbd5d"><path d="m194.686 358.971h-5.63c-.895 0-1.621.726-1.621 1.621v8.672c0 .895.726 1.622 1.621 1.622h5.63c.895 0 1.621-.727 1.621-1.622v-8.672c0-.895-.726-1.621-1.621-1.621z"/><path d="m215.813 355.91h-5.63c-.895 0-1.621.726-1.621 1.621v11.733c0 .896.726 1.622 1.621 1.622h5.63c.895 0 1.621-.726 1.621-1.622v-11.733c0-.895-.726-1.621-1.621-1.621z"/><path d="m205.251 351.467h-5.632c-.896 0-1.622.726-1.622 1.621v16.176c0 .896.726 1.622 1.622 1.622h5.632c.896 0 1.622-.726 1.622-1.622v-16.176c0-.895-.726-1.621-1.622-1.621z"/><path d="m213.066 346.882 1.256 2.549 2.815.41-2.035 1.984.479 2.802-2.515-1.323-2.516 1.323.479-2.802-2.034-1.984 2.812-.41z"/><path d="m202.484 342.465 1.258 2.551 2.814.409-2.034 1.985.48 2.8-2.517-1.322-2.517 1.322.479-2.8-2.034-1.985 2.813-.409z"/><path d="m191.716 349.854 1.257 2.551 2.814.41-2.033 1.983.479 2.801-2.517-1.322-2.517 1.324.481-2.802-2.034-1.982 2.812-.411z"/></g></g><g filter="url(#b)"><rect fill="#fff" height="60.2025" rx="30.1013" shape-rendering="crispEdges" width="60.2025" x="174.032" y="25.0791"/><g clip-path="url(#j)" clip-rule="evenodd" fill="#f65e5e" fill-rule="evenodd"><path d="m205.083 42.1296c-7.72 0-14 6.28-14 14 0 1.368.201 2.728.598 4.044.16.5293-.14 1.0867-.668 1.2467-.534.1586-1.088-.1427-1.246-.6694-.454-1.5026-.684-3.0573-.684-4.6213 0-8.8227 7.177-16 16-16 3.312 0 6.446 1.0187 9.074 2.8453l2.552-2.552c.286-.2866.716-.3733 1.09-.2173.373.1547.617.52.617.924v6c0 .552-.448 1-1 1h-6c-.405 0-.769-.244-.924-.6173-.153-.3734-.069-.804.217-1.0894l2.016-2.0173c-2.236-1.4667-4.87-2.276-7.642-2.276zm14.07 8.7092c.532-.1586 1.088.1414 1.247.6694.453 1.5026.684 3.0573.684 4.6213 0 8.8227-7.177 16-16 16-3.312 0-6.447-1.0187-9.075-2.8453l-2.552 2.552c-.293.2933-.726.368-1.089.2173-.373-.1547-.617-.52-.617-.924v-6c0-.552.448-1 1-1h6c.405 0 .769.244.924.6173.153.3734.069.804-.218 1.0894l-2.016 2.0173c2.236 1.4667 4.871 2.276 7.643 2.276 7.72 0 14-6.28 14-14 0-1.368-.201-2.728-.599-4.044-.16-.5293.14-1.0867.668-1.2467z"/><path d="m207.083 51.9037c1.542-.7141 3.579-1.1073 5.736-1.1073h.645v10.0329h-.645c-1.979 0-3.828.3517-5.207.9904-.909.421-1.524.9276-1.767 1.4409v-10.629c.351-.2647.765-.5088 1.238-.7279zm-2.762.7278c-.351-.2647-.765-.5088-1.238-.7278-1.542-.7141-3.579-1.1073-5.736-1.1073h-.645v10.0329h.645c1.978 0 3.828.3517 5.207.9904.909.4209 1.523.9273 1.767 1.4405z"/></g></g><g filter="url(#c)"><rect fill="#fff" height="56.2988" rx="28.1494" shape-rendering="crispEdges" width="56.2988" x="38" y="159.826"/><path clip-rule="evenodd" d="m55.8391 187.982c0-6.073 4.9384-11.009 11.0026-11.009 6.0641 0 11.0025 4.936 11.0025 11.009 0 6.06-4.9384 10.996-11.0025 10.996-6.0642 0-11.0026-4.936-11.0026-10.996zm15.0383 1.113c.1168-.117.2655-.297.2974-.34.1699-.223.2549-.499.2549-.774 0-.308-.0956-.595-.2762-.829-.0147-.014-.0437-.046-.0815-.087-.0706-.077-.172-.187-.2689-.284-.8709-.934-3.1436-2.463-4.3331-2.93-.1805-.073-.6372-.233-.8815-.244-.2336 0-.4566.053-.669.159-.2655.149-.4779.382-.5948.658-.0743.191-.1911.765-.1911.775-.1168.627-.1806 1.646-.1806 2.771 0 1.073.0638 2.048.1593 2.685.0027.003.0118.049.026.119.0431.215.133.664.2289.847.2337.446.6903.722 1.1789.722h.0424c.3187-.01.9877-.286.9877-.297 1.1258-.467 3.3454-1.921 4.2375-2.887z" fill="#f26f37" fill-rule="evenodd"/></g><g filter="url(#d)"><rect fill="#fff" height="45.1519" rx="22.5759" shape-rendering="crispEdges" width="45.1519" x="94.2988" y="461.332"/><path d="m110.379 489.239c.019.083.055.16.106.228.05.069.113.126.187.169.073.043.154.07.238.081s.169.005.25-.018c3.739-1.032 7.687-1.033 11.425-.001.082.023.167.029.251.018s.165-.038.238-.081.137-.1.187-.169c.05-.068.086-.145.106-.228l1.998-8.49c.027-.114.021-.233-.016-.344-.037-.11-.104-.208-.194-.283-.09-.074-.199-.122-.315-.138s-.233 0-.34.048l-3.965 1.762c-.144.064-.305.072-.454.022s-.273-.153-.349-.29l-2.309-4.156c-.054-.098-.134-.179-.23-.236-.097-.057-.206-.087-.318-.087s-.222.03-.318.087c-.097.057-.176.138-.23.236l-2.309 4.156c-.076.137-.201.24-.349.29-.149.05-.311.042-.454-.022l-3.966-1.762c-.106-.048-.224-.065-.34-.049s-.225.064-.314.139c-.09.074-.158.172-.195.283s-.043.229-.016.343z" fill="#e64545" opacity=".2"/><g stroke="#e64545" stroke-linecap="round" stroke-linejoin="round" stroke-width="1.25422"><path d="m110.379 489.239c.019.083.055.16.106.228.05.069.113.126.187.169.073.043.154.07.238.081s.169.005.25-.018c3.739-1.032 7.687-1.033 11.425-.001.082.023.167.029.251.018s.165-.038.238-.081.137-.1.187-.169c.05-.068.086-.145.106-.228l1.998-8.49c.027-.114.021-.233-.016-.344-.037-.11-.104-.208-.194-.283-.09-.074-.199-.122-.315-.138s-.233 0-.34.048l-3.965 1.762c-.144.064-.305.072-.454.022s-.273-.153-.349-.29l-2.309-4.156c-.054-.098-.134-.179-.23-.236-.097-.057-.206-.087-.318-.087s-.222.03-.318.087c-.097.057-.176.138-.23.236l-2.309 4.156c-.076.137-.201.24-.349.29-.149.05-.311.042-.454-.022l-3.966-1.762c-.106-.048-.224-.065-.34-.049s-.225.064-.314.139c-.09.074-.158.172-.195.283s-.043.229-.016.343z"/><path d="m114.366 486.548c1.668-.176 3.35-.176 5.017 0"/></g></g><g filter="url(#e)"><rect fill="#fff" height="56.2602" rx="28.1301" shape-rendering="crispEdges" width="57.8621" x="1184.89" y="7"/><g clip-path="url(#k)"><path clip-rule="evenodd" d="m1215.59 39.7128c-.41.4999-.72 1.098-.87 1.7299l-.78 3.2864c-.23.9404.09 1.9097.83 2.5308.75.6276 1.77.7614 2.64.3837l3.1-1.3455c.6-.2599 1.14-.6583 1.55-1.1525l.11-.1298v1.9969c0 1.3974-1.14 2.5341-2.53 2.5341h-16.9c-1.4 0-2.53-1.1367-2.53-2.5341v-23.7647c0-1.3974 1.13-2.5341 2.53-2.5341h12.67v5.913c0 .4669.38.8447.85.8447h5.91v4.4578zm-2.71-13.9306h-8.45c-.47 0-.84.3778-.84.8447s.37.8447.84.8447h8.45c.47 0 .84-.3778.84-.8447s-.37-.8447-.84-.8447zm5.07 5.1246h-13.52c-.47 0-.84.3778-.84.8447s.37.8447.84.8447h13.52c.46 0 .84-.3778.84-.8447s-.38-.8447-.84-.8447zm-13.52 11.826h6.76c.47 0 .84-.3778.84-.8447s-.37-.8448-.84-.8448h-6.76c-.47 0-.84.3779-.84.8448s.37.8447.84.8447zm-.84-5.913c0 .4669.37.8447.84.8447h10.14c.46 0 .84-.3778.84-.8447s-.38-.8447-.84-.8447h-10.14c-.47 0-.84.3778-.84.8447zm17.79-12.3611-3.21-3.0489c-.3-.2876-.67-.457-1.07-.567v4.9391h5.02c-.11-.5018-.36-.9666-.74-1.3232zm6.76 6.9327c-1.05-.8827-2.65-.7775-3.57.3093l-.54.6481 3.88 3.2577.52-.6457c.9-1.0699.79-2.6679-.29-3.5694zm-10.96 9.0622-.29.342c-.25.3002-.43.6591-.52 1.0393l-.79 3.2865c-.07.311.03.6377.28.8431.24.2004.57.2585.88.1287l3.1-1.3447c.36-.1559.68-.3959.93-.6937l.29-.3431zm1.09-1.2897 4.67-5.5252 3.88 3.2577-4.67 5.5256z" fill="#f3c050" fill-rule="evenodd"/></g></g><g filter="url(#f)"><rect fill="#fff" height="49.3691" rx="24.6845" shape-rendering="crispEdges" width="49.3691" x="1275.87" y="391.793"/><path d="m1294.38 410.307v4.722c0 3.403 2.72 6.223 6.13 6.249.81.006 1.62-.149 2.37-.457.76-.307 1.44-.761 2.02-1.334.58-.574 1.04-1.256 1.35-2.008s.47-1.558.47-2.372v-4.8c0-.182-.07-.356-.2-.485-.12-.129-.3-.201-.48-.201h-10.97c-.18 0-.36.072-.49.201s-.2.303-.2.485z" fill="#f80" opacity=".2"/><g stroke="#f80" stroke-linecap="round" stroke-linejoin="round" stroke-width="1.37136"><path d="m1294.38 410.307v4.722c0 3.403 2.72 6.223 6.13 6.249.81.006 1.62-.149 2.37-.457.76-.307 1.44-.761 2.02-1.334.58-.574 1.04-1.256 1.35-2.008s.47-1.558.47-2.372v-4.8c0-.182-.07-.356-.2-.485-.12-.129-.3-.201-.48-.201h-10.97c-.18 0-.36.072-.49.201s-.2.303-.2.485z"/><path d="m1297.81 424.706h5.49"/><path d="m1300.55 421.277v3.429"/><path d="m1306.57 416.478h.84c.73 0 1.43-.289 1.94-.804.51-.514.8-1.212.8-1.939v-1.372c0-.181-.07-.356-.2-.484-.13-.129-.3-.201-.48-.201h-2.75"/><path d="m1294.55 416.478h-.86c-.73 0-1.43-.289-1.94-.804-.52-.514-.81-1.212-.81-1.939v-1.372c0-.181.08-.356.2-.484.13-.129.31-.201.49-.201h2.74"/></g></g><g filter="url(#g)"><rect fill="#fff" height="74.3184" rx="37.1592" shape-rendering="crispEdges" width="74.3184" x="1110.57" y="469.325"/><g clip-path="url(#l)" fill="#8480f3"><path d="m1148.62 493.05c-.14 0-1.97 0-2.67 0 0-.985-.8-1.783-1.78-1.783-.99 0-1.79.798-1.79 1.783-.65 0-1.01 0-2.67 0-.5 0-.89.459-.89.951v.892c0 .985.79 1.783 1.78 1.783h7.13c.99 0 1.78-.798 1.78-1.783v-.892c0-.492-.39-.951-.89-.951z"/><path d="m1153.14 494.892h-1.78c0 1.967-1.66 3.567-3.63 3.567h-7.13c-1.97 0-3.57-1.6-3.57-3.567h-1.78c-1.48 0-2.74 1.2-2.74 2.675v21.399c0 1.475 1.26 2.735 2.74 2.735h17.89c1.48 0 2.68-1.26 2.68-2.735v-21.399c0-1.475-1.2-2.675-2.68-2.675zm-16.74 6.872c-.35-.348-.35-.913 0-1.261s.91-.348 1.26 0l1.16 1.153 1.15-1.153c.35-.348.91-.348 1.26 0s.35.913 0 1.261l-1.15 1.153 1.15 1.153c.35.348.35.912 0 1.261-.35.348-.91.348-1.26 0l-1.15-1.153-1.16 1.153c-.35.348-.91.348-1.26 0-.35-.349-.35-.913 0-1.261l1.15-1.153zm6.61 12.483-3.56 3.567c-.18.174-.41.261-.63.261-.23 0-.46-.087-.64-.261l-1.78-1.784c-.35-.348-.35-.912 0-1.261.35-.348.91-.348 1.26 0l1.16 1.153 2.93-2.936c.35-.348.91-.348 1.26 0s.35.913 0 1.261zm0-6.242-3.56 3.567c-.18.174-.41.261-.63.261-.23 0-.46-.087-.64-.261l-1.78-1.783c-.35-.349-.35-.913 0-1.261s.91-.348 1.26 0l1.16 1.153 2.93-2.936c.35-.349.91-.349 1.26 0 .35.348.35.912 0 1.26zm8.35 8.287h-5.41c-.49 0-.89-.399-.89-.892s.4-.892.89-.892h5.41c.49 0 .89.399.89.892s-.4.892-.89.892zm0-6.242h-5.41c-.49 0-.89-.399-.89-.892 0-.492.4-.891.89-.891h5.41c.49 0 .89.399.89.891 0 .493-.4.892-.89.892zm0-6.241h-5.41c-.49 0-.89-.399-.89-.892s.4-.892.89-.892h5.41c.49 0 .89.399.89.892s-.4.892-.89.892z"/><path d="m1160.27 496.675c-1.47 0-2.67 1.2-2.67 2.675v2.675h5.35v-2.675c0-1.475-1.2-2.675-2.68-2.675z"/><path d="m1157.6 503.809v9.438l.26-.261c1.33-1.33 3.5-1.33 4.83 0l.26.261v-9.438z"/><path d="m1161.43 514.247c-.64-.636-1.67-.636-2.31 0l-1.02 1.02 1.33 3.981c.12.364.46.61.84.61.39 0 .73-.246.85-.61l1.33-3.981z"/></g></g><g filter="url(#h)"><rect fill="#fff" height="75.8836" rx="37.9418" shape-rendering="crispEdges" width="75.8836" x="1125.01" y="216.125"/><g clip-path="url(#m)"><path clip-rule="evenodd" d="m1154.7 238.441c-2.74 3.644-2.74 8.732 0 12.376.31.416.9.496 1.31.187.42-.312.5-.899.19-1.313-2.24-2.98-2.24-7.144 0-10.124.31-.414.23-1.002-.19-1.313-.41-.311-1-.226-1.31.187zm-4.94 14.751h26.38c1.55 0 2.81 1.261 2.81 2.812v11.25c0 1.551-1.26 2.813-2.81 2.813h-26.38c-1.55 0-2.81-1.262-2.81-2.813v-11.25c0-1.551 1.26-2.812 2.81-2.812zm1.94 13.125h3.75c.52 0 .94-.42.94-.938s-.42-.937-.94-.937h-2.81v-6.563c0-.518-.42-.937-.94-.937s-.94.419-.94.937v7.5c0 .518.42.938.94.938zm7.5 0c.52 0 .94-.42.94-.938v-7.5c0-.518-.42-.937-.94-.937s-.94.419-.94.937v7.5c0 .518.42.938.94.938zm6.53-.711 1.88-7.5c.13-.501-.18-1.01-.68-1.136-.51-.131-1.01.18-1.14.682l-.97 3.862-.96-3.862c-.13-.502-.64-.812-1.14-.682-.5.126-.81.635-.68 1.136l1.88 7.5c.1.418.47.711.9.711.44 0 .81-.293.91-.711zm9.41-3.977c0-.518-.42-.937-.94-.937h-2.81v-1.875h2.81c.52 0 .94-.42.94-.938s-.42-.937-.94-.937h-3.75c-.52 0-.94.419-.94.937v7.5c0 .518.42.938.94.938h3.75c.52 0 .94-.42.94-.938s-.42-.937-.94-.937h-2.81v-1.875h2.81c.52 0 .94-.42.94-.938zm-5.25-10.625c-.42-.311-.5-.899-.19-1.313 2.24-2.98 2.24-7.144 0-10.124-.31-.414-.23-1.001.19-1.313.41-.31 1-.226 1.31.187 2.74 3.644 2.74 8.732 0 12.376-.31.415-.9.497-1.31.187zm-11.83-10.751c-2.23 2.494-2.23 6.257 0 8.751.34.386.94.418 1.32.073.39-.345.42-.938.08-1.324-1.6-1.781-1.6-4.467 0-6.249.34-.386.31-.979-.08-1.324-.38-.343-.97-.312-1.32.073zm8.46 8.825c-.39-.345-.42-.938-.08-1.324 1.6-1.781 1.6-4.468 0-6.249-.34-.386-.31-.979.08-1.324.38-.344.98-.313 1.32.073 2.24 2.494 2.24 6.257 0 8.751-.34.386-.94.418-1.32.073zm-6.38-4.449c0 1.551 1.26 2.813 2.81 2.813s2.81-1.262 2.81-2.813-1.26-2.812-2.81-2.812-2.81 1.261-2.81 2.812z" fill="#ff4f5d" fill-rule="evenodd"/></g></g></svg>