<svg width="1439" height="489" viewBox="0 0 1439 489" fill="none" xmlns="http://www.w3.org/2000/svg">
<path d="M-2.12402 68.8556C10.1891 38.7841 24.1312 5.75762 54.2027 18.0707C84.2742 30.3838 95.729 68.171 83.4159 98.2425C71.1028 128.314 -1.6801 152.231 -31.7516 139.918C-61.8231 127.605 -14.4371 98.9271 -2.12402 68.8556Z" fill="#1787FC"/>
<path d="M230.415 268.88C233.753 260.727 245.565 254.206 253.718 257.544C261.871 260.882 264.976 271.127 261.638 279.28C258.3 287.432 248.345 282.617 240.193 279.279C232.04 275.941 227.077 277.032 230.415 268.88Z" fill="#D6EBE4"/>
<path d="M1138.04 103.657C1140.47 97.7107 1146.94 93.6905 1152.89 96.1253C1158.83 98.5602 1160.27 103.736 1157.84 109.683C1155.4 115.629 1155.57 125.205 1149.62 122.771C1143.68 120.336 1135.6 109.604 1138.04 103.657Z" fill="#20BFA9"/>
<path d="M1032.12 303.559C1030.55 299.703 1026.35 297.096 1022.5 298.675C1018.64 300.254 1017.71 303.61 1019.29 307.467C1020.87 311.323 1020.76 317.533 1024.61 315.954C1028.47 314.375 1033.7 307.415 1032.12 303.559Z" fill="#1787FC"/>
<path d="M416.125 131.559C414.546 127.703 410.352 125.096 406.496 126.675C402.64 128.254 401.707 131.61 403.286 135.467C404.865 139.323 404.756 145.533 408.612 143.954C412.468 142.375 417.704 135.415 416.125 131.559Z" fill="#FFCD28"/>
<path d="M1385.67 356.801C1393.86 336.817 1440.68 353.907 1460.66 362.089C1480.65 370.272 1499.86 396.816 1491.68 416.8C1483.5 436.783 1438.34 441.897 1418.36 433.715C1398.38 425.532 1377.49 376.785 1385.67 356.801Z" fill="#FFCD28"/>
<path d="M249.207 477.282C238.998 463.671 245.649 444.054 262.03 439.456V439.456C268.385 437.673 275.193 438.562 280.877 441.919L315.364 462.285C322.406 466.444 328.557 471.952 333.464 478.495L350.716 501.498C361.763 516.228 358.778 537.125 344.048 548.172V548.172C329.318 559.22 308.421 556.234 297.373 541.504L249.207 477.282Z" fill="#FF794D"/>
</svg>
